<svg width="1264" height="840" viewBox="0 0 1264 840" xmlns="http://www.w3.org/2000/svg">
<path fill-rule="evenodd" clip-rule="evenodd" d="M941.029 35.992C954.175 25.96 971.57 15.045 986.587 7.405C994.593 3.332 1001.68 0 1002.35 0C1003.51 0 1152.85 317.973 1152.17 318.997C1151.98 319.274 1146.5 321.807 1139.98 324.628C1108.56 338.225 1072.23 360.431 1042.78 384.044C976.394 437.27 929.078 504.6 902.963 583C897.634 598.997 892 619.082 892 622.081C892 622.751 896.169 615.02 901.264 604.9C912.671 582.241 923.454 564.887 938.921 544.294C981.512 487.587 1041.89 435.258 1116.12 390.706C1141.75 375.325 1170.26 360.157 1188 352.469C1191.58 350.92 1194.86 349.347 1195.3 348.975C1195.74 348.603 1162.05 275.669 1120.43 186.899C1078.81 98.13 1044.56 24.795 1044.31 23.932C1043.98 22.76 1046.97 20.894 1056.18 16.534C1071.8 9.143 1081.53 4.99501 1083.19 5.01801C1083.95 5.02901 1122.59 86.511 1174.15 196.768C1223.45 302.221 1263.73 388.571 1263.65 388.658C1263.57 388.745 1258.32 389.568 1252 390.486C1225.2 394.377 1199.33 400.565 1172.5 409.497C1115.86 428.355 1061.34 458.917 1008.5 501.426C970.379 532.094 925.992 578.574 899.561 615.5C893.483 623.992 893.691 623.791 912.231 603.282C945.185 566.828 989.955 533.045 1035.59 510.199C1069.74 493.101 1107.79 480.301 1144.82 473.456C1159.92 470.666 1181.66 468.025 1189.65 468.01L1194.8 468L1191.87 458.25C1190.26 452.888 1187.42 443.406 1185.55 437.181L1182.16 425.861L1186.83 423.856C1193.17 421.133 1206.92 417.208 1212.74 416.459L1217.5 415.847L1231.27 453.569C1238.84 474.316 1244.92 491.412 1244.77 491.56C1244.62 491.707 1238.88 491.367 1232 490.804C1194.47 487.73 1145.51 493.348 1103.31 505.571C1036.03 525.056 963.155 565.359 905.834 614.778C899.418 620.309 893.868 624.535 893.501 624.168C893.134 623.8 892.983 624.119 893.167 624.875C893.35 625.631 893.05 626.418 892.5 626.622C890.851 627.237 891.036 621.28 893.124 606.5C903.013 536.537 925.559 469.527 956.548 418C973.65 389.564 989.278 369.505 1011.47 347.5C1033.03 326.134 1054.4 310.241 1077.42 298.471C1084.06 295.072 1090.09 292.102 1090.82 291.871C1091.73 291.582 1075.81 257.337 1039.47 181.476C1010.5 120.989 986.623 71.319 986.412 71.098C985.668 70.317 973.011 74.235 966.828 77.159C963.384 78.787 958.053 81.836 954.981 83.933L949.395 87.746L942.383 85.965C932.498 83.455 926.477 80.375 922.599 75.845C919.481 72.201 915 62.545 915 59.468C915 57.918 929.872 44.505 941.029 35.992ZM891.71 85.075C893.687 81.779 895.775 76.028 897.144 70.111C899.253 60.997 899.411 60.681 900.211 64C900.676 65.925 902.16 71.14 903.51 75.589C907.963 90.265 915.574 95.871 936.16 99.637L945.461 101.338L935.372 103.031C913.308 106.733 905.614 113.692 901.119 134.014C899.088 143.195 899.001 143.157 896.451 132C892.066 112.818 886.17 107.292 865.656 103.136C859.162 101.82 857.227 101.12 859 100.73C882.242 95.61 886.661 93.495 891.71 85.075ZM832.76 91.073C837.1 89.633 837.669 89.059 839.5 84.279C840.516 81.6262 840.975 80.199 841.468 80.187C842.02 80.1737 842.616 81.9395 844.089 85.752C845.123 88.428 850.602 91.991 853.691 91.996C857.642 92.003 857.056 93.735 852.876 94.404C847.671 95.236 843.39 99.407 842.413 104.6L841.678 108.5L840.01 103.5C838.175 98.001 833.616 94 829.185 94C825.787 94 827.045 92.97 832.76 91.073ZM403.25 104.407C401.621 103.959 401.581 94.819 403.2 93.2C405.009 91.391 563.895 91.471 566.373 93.283C567.725 94.272 568.055 95.704 567.814 99.533L567.5 104.5L561.732 105.216C544.077 107.409 535.449 114.406 531.354 129.855C529.709 136.061 529.569 148.627 529.241 320C529 445.918 529.228 507.036 529.966 514.769C531.35 529.257 533.837 536.037 540.074 542.323L544.86 547.146L543.43 551.199C542.643 553.428 542 557.223 542 559.633V564.014L472.25 563.757L402.5 563.5L402.192 558.672C402.023 556.017 402.365 553.265 402.954 552.556C403.543 551.846 407.049 551.049 410.762 550.781C422.868 549.909 433.073 542.765 436.926 532.467C438.012 529.566 439.391 523.437 439.991 518.846C440.757 512.994 440.988 454.323 440.764 322.5C440.48 155.032 440.274 133.954 438.875 129.5C434.176 114.537 426.94 108.224 411.801 105.881C407.785 105.259 403.938 104.596 403.25 104.407ZM841.357 132.466C851.682 129.837 854.51 126.543 858.071 113L859.254 108.5L860.942 114.591C864.344 126.865 868.459 130.588 882 133.646L889.5 135.339L882.142 136.593C869.158 138.804 862.199 145.264 860.428 156.75C860.068 159.087 859.474 161 859.108 161C858.742 161 857.628 157.837 856.632 153.971C854.82 146.934 851.685 141.989 847.642 139.789C846.464 139.148 842.35 137.858 838.5 136.922C834.65 135.985 832.175 134.993 833 134.716C833.825 134.439 837.585 133.427 841.357 132.466ZM654.128 153.884C668.658 147.57 685.715 143.547 706 141.648C718.812 140.448 754.035 142.053 770.5 144.585C792.751 148.008 814.861 155.038 837.408 165.858C849.265 171.548 874.124 185.851 878.955 189.763L881.403 191.744L863.55 242.122C853.732 269.83 845.244 293.083 844.69 293.794C843.635 295.149 838.515 294.584 836.39 292.878C835.702 292.326 835.072 285.804 834.734 275.744C832.561 211.113 801.052 167.758 748 156.399C735.973 153.825 709.602 153.789 698.5 156.333C672.737 162.237 656.388 178.343 652.279 201.866C646.237 236.465 662.588 265.454 703.5 292.674C715.696 300.788 720.254 303.434 751.5 320.542C784.103 338.393 796.572 345.705 813 356.606C856.777 385.658 881.926 420.318 889.737 462.364C892.356 476.468 892.043 508.157 889.15 521.734C883.831 546.69 872.856 567.323 856.03 584C841.976 597.929 823.58 608.626 800.836 616.094C779.051 623.248 760.234 626.005 733.289 625.992C706.86 625.979 691.733 623.781 670 616.797C646.198 609.148 628.752 599.684 608.284 583.319C607 582.293 607.161 581.254 609.518 575.362C611.892 569.428 612.173 567.587 611.775 560.543C611.039 547.491 604.578 537.16 593.545 531.395L588.005 528.5L588.002 485.95C588.001 454.186 588.304 443.096 589.2 442.2C590.854 440.546 596.498 440.691 597.936 442.423C598.586 443.206 600.452 448.943 602.083 455.173C605.761 469.222 612.753 490.019 618.647 504.442C641.75 560.978 678.424 600.956 716.5 611.114C730.658 614.891 758.487 613.873 776.943 608.904C801.632 602.257 818.909 584.52 825.2 559.363C827.067 551.898 827.423 547.661 827.458 532.5C827.494 516.63 827.228 513.563 825.207 506.585C815.26 472.228 787.063 447.017 711.171 404.625C655.686 373.632 625.807 348.152 605.606 314.606C590.359 289.286 585.018 249.047 593.054 220.046C600.67 192.564 624.486 166.764 654.128 153.884ZM257.187 232.136C257.015 229.735 257.114 227.145 257.408 226.38C257.859 225.204 270.69 225.028 340.221 225.244L422.5 225.5V230.956V236.412L414.241 237.694C404.225 239.248 397.414 242.53 392.646 248.101C388.593 252.836 386.525 258.354 385.001 268.5C384.286 273.258 384.038 336.665 384.225 466.5L384.5 657.5L387.426 663.278C391.035 670.405 398.229 677.28 405.782 680.82L411.5 683.5L448 683.435C481.782 683.375 485.282 683.204 495 681.144C520.717 675.691 536.869 662.278 549.969 635.5C555.088 625.035 562.971 603.445 563.015 599.768C563.057 596.29 564.513 595.805 571.107 597.068C574.623 597.742 577.616 598.38 577.757 598.487C578.071 598.724 575.286 623.157 573.996 631.5C573.485 634.8 571.456 650.323 569.488 665.996C567.519 681.669 565.554 694.846 565.12 695.28C564.686 695.714 528.145 695.94 483.916 695.784L403.5 695.5L395.5 692.684C378.539 686.714 363.606 674.294 351.582 656.157C348.061 650.845 340.578 638.175 334.952 628C314.938 591.799 307.117 581.236 293.664 572.238C282.726 564.922 274.228 562.5 259.5 562.5C244.965 562.5 237.746 564.607 226.498 572.13C214.989 579.828 207.237 590.267 202.462 604.5C193.982 629.771 204.731 659.546 227.531 673.945C237.493 680.237 247.402 683.155 258.915 683.186C278.474 683.24 288.859 676.15 293.607 659.5C295.019 654.551 295.394 647.69 295.75 620.322C296.127 591.336 296.38 587.068 297.754 586.541C301.343 585.164 310.219 597.342 327.97 628C350.105 666.229 359.18 677.911 375.25 688.86C377.862 690.64 380 692.263 380 692.466C380 692.67 379.727 693.548 379.393 694.418C378.848 695.838 372.203 696 314.553 696C253.632 696 249.912 695.897 242.41 694.001C209.797 685.758 186.957 656.519 187.017 623.09C187.04 610.347 189.04 601.554 194.41 590.581C208.128 562.549 237.157 546.666 268.305 550.151C275.106 550.912 286.095 554.013 294.276 557.481C295.973 558.2 296.038 551.777 295.745 412.367C295.474 283.304 295.258 265.924 293.872 261.5C289.092 246.248 281.798 240.192 265.162 237.664L257.5 236.5L257.187 232.136ZM555.367 572.541C548.94 558.738 556.605 542.75 571.5 538.888C578.783 536.999 588.915 540.03 594.136 545.658C608.656 561.312 598.17 586 577.001 586C566.834 586 559.514 581.446 555.367 572.541ZM599.238 673.003C599.094 651.829 599.195 633.933 599.464 633.233C599.843 632.246 604.827 632.021 621.726 632.23L643.5 632.5L643.805 637.25C644.023 640.654 643.74 641.993 642.805 641.977C642.087 641.964 635.65 641.075 628.5 640C621.35 638.925 614.246 638.036 612.712 638.023L609.925 638L610.212 647.25L610.5 656.5L622 657L633.5 657.5L633.818 661.382C633.993 663.517 633.768 665.62 633.318 666.056C632.868 666.492 629.35 665.77 625.5 664.45C621.65 663.131 616.595 662.04 614.267 662.026L610.035 662L609.767 686.75L609.5 711.5H604.5H599.5L599.238 673.003ZM830.238 673.003C830.094 651.829 830.201 633.918 830.477 633.2C830.823 632.298 832.604 631.988 836.239 632.197L841.5 632.5L841.762 669.25L842.025 706H844.457C845.796 706 853.029 705.098 860.533 703.995C868.036 702.893 874.586 702.244 875.088 702.554C875.589 702.864 876 704.883 876 707.04C876 710.277 875.607 711.058 873.75 711.514C872.513 711.818 862.275 711.939 851 711.783L830.5 711.5L830.238 673.003ZM694.424 642.642C695.757 641.768 697.138 640.141 697.492 639.027C697.845 637.912 698.749 637 699.5 637C700.251 637 701.155 637.912 701.508 639.027C701.862 640.141 703.243 641.768 704.576 642.642C707.296 644.424 707.815 647 705.453 647C704.603 647 703.14 648.347 702.203 649.994C700.216 653.487 698.404 653.85 697.481 650.939C697.121 649.806 695.741 648.383 694.413 647.779C691.343 646.38 691.347 644.658 694.424 642.642ZM883.518 642.993C884.903 642.467 886.467 640.903 886.993 639.518C887.52 638.133 888.187 637 888.475 637C889.302 637 897 644.913 897 645.763C897 646.182 895.987 646.97 894.75 647.513C893.513 648.056 892.056 649.513 891.513 650.75C890.23 653.675 888.237 653.615 886.868 650.61C886.269 649.296 884.704 647.731 883.39 647.132C880.305 645.726 880.353 644.197 883.518 642.993ZM1111.51 642.995C1112.89 642.47 1114.54 640.906 1115.17 639.52C1115.8 638.134 1116.47 637 1116.66 637C1117.49 637 1125 645.104 1125 646C1125 646.55 1124.3 647 1123.45 647C1122.6 647 1121.14 648.347 1120.2 649.994C1118.23 653.462 1116.05 653.891 1115.28 650.96C1114.99 649.838 1113.45 648.251 1111.87 647.434C1108.34 645.605 1108.22 644.245 1111.51 642.995ZM1034.62 654.999C1032.27 655 1032.75 652.014 1036.44 643.696L1039.02 637.891L1043.76 638.196C1046.9 638.397 1048.5 638.952 1048.5 639.836C1048.5 642.06 1036.66 654.998 1034.62 654.999ZM907 650.667C907 647.183 907.3 644.033 907.667 643.667C908.033 643.3 910.713 643 913.621 643H918.909L919.204 649.75L919.5 656.5L923.5 657C926.167 657.333 927.5 658 927.5 659C927.5 660 926.167 660.667 923.5 661L919.5 661.5L919.23 682.306C918.999 700.013 919.207 703.633 920.621 706.614C922.761 711.124 921.669 712.209 915.39 711.81C910.926 711.527 910.348 711.195 908.752 708C907.248 704.99 907.003 701.454 907.002 682.75L907 661H904C901.667 661 901 660.556 901 659C901 657.444 901.667 657 904 657H907V650.667ZM639.958 696.394C632.753 677.471 642.234 659.156 660.859 656.022C673.037 653.973 683 658.682 683 666.487C683 673.834 675.059 680.305 659.602 685.553C649.979 688.82 649.631 689.389 652.88 696.541C658.182 708.215 672.299 710.419 681.286 700.978C684.886 697.196 686.9 696.233 688.293 697.627C688.638 697.972 688.286 699.48 687.511 700.978C683.619 708.505 672.392 713.733 662.347 712.696C652.825 711.714 643.093 704.627 639.958 696.394ZM731.137 657.655C733.537 656.777 736.85 655.895 738.5 655.695C744.588 654.957 753 656.817 753 658.9C753 660.393 748.887 665 747.555 665C746.839 665 744.177 664.081 741.639 662.958C737.788 661.255 736.385 661.089 733.17 661.954C726.1 663.858 726.071 663.962 725.77 689.057L725.5 711.5H720H714.5V684.5V657.5L719.905 657.192C723.297 656.999 725.583 657.326 726.042 658.068C726.593 658.96 727.849 658.858 731.137 657.655ZM755 662.07C755 660.405 762.507 657.059 768.217 656.179C779.235 654.481 788.297 657.471 792.816 664.296L795.5 668.349V689.924V711.5L792.112 711.824C787.408 712.273 784 711.254 784 709.398C784 708.537 783.662 708.007 783.25 708.219C776.505 711.691 773.82 712.413 767.5 712.45C755.721 712.521 749 707.106 749 697.546C749 688.242 752.614 684.991 769.017 679.542C774.588 677.691 780.066 675.35 781.188 674.338C786.142 669.877 785.72 663.616 780.312 661.357C775.327 659.274 770.627 660.553 764.288 665.716C761.285 668.162 758.7 670.013 758.542 669.831C757.693 668.853 755 662.951 755 662.07ZM929.938 696.551C922.319 679.142 932.139 658.944 949.622 656.069C962.628 653.93 973.006 658.51 972.996 666.385C972.986 674.874 965.369 680.186 941.315 688.479C940.437 688.781 940.395 689.874 941.15 692.694C945.156 707.644 962.43 711.785 972.227 700.142C975.32 696.467 978 696.016 978 699.171C978 700.438 976.132 703.132 973.517 705.639C960.227 718.372 937.406 713.613 929.938 696.551ZM996.674 658.135C998.348 657.442 1001.92 656.511 1004.61 656.066C1007.3 655.622 1010.18 655.386 1011 655.542C1011.82 655.698 1014.19 656.11 1016.25 656.458C1020.76 657.22 1021.21 659.515 1017.52 662.985L1015.03 665.318L1010.85 663.431C1005.74 661.127 1000.23 661.147 996.667 663.482L994 665.23V687.415C994 703.337 993.661 709.939 992.8 710.8C990.957 712.643 982.348 712.349 981.607 710.418C980.805 708.328 980.832 684.439 981.654 669.157L982.307 657H987.57C990.769 657 992.99 657.47 993.233 658.198C993.54 659.12 994.332 659.105 996.674 658.135ZM1022 662.339C1022 660.674 1030.14 656.969 1035.73 656.09C1049.67 653.901 1060.51 659.838 1062.9 670.97C1064.44 678.151 1064.36 709.238 1062.8 710.8C1060.79 712.807 1053.21 712.308 1051.82 710.078C1050.63 708.184 1050.56 708.185 1046.74 710.133C1041.15 712.985 1034.35 713.534 1027.89 711.656C1020.73 709.574 1016.94 705.647 1016.26 699.593C1015.19 690.12 1020.35 684.469 1033.75 680.424C1048.77 675.889 1053.67 671.648 1051.39 665.159C1049.01 658.412 1039.44 658.638 1031.98 665.616C1029.4 668.027 1026.99 670 1026.63 670C1025.75 670 1022.01 663.809 1022 662.339ZM1084.52 657.967C1086.16 657.329 1089.53 656.456 1092 656.025C1094.47 655.594 1097.1 655.412 1097.83 655.621C1098.56 655.829 1100.39 656 1101.89 656C1103.39 656 1105.44 656.604 1106.45 657.343C1108.22 658.632 1108.2 658.817 1105.91 661.914C1103.34 665.38 1102.86 665.413 1095.37 662.629C1092.29 661.483 1090.36 661.337 1087.77 662.053C1081.14 663.884 1081.07 664.16 1080.77 689.057L1080.5 711.5H1075H1069.5L1069.23 684.25L1068.97 657H1074.9C1078.2 657 1080.99 657.472 1081.19 658.062C1081.43 658.8 1082.45 658.77 1084.52 657.967ZM1136.76 660.173C1139.64 658.125 1145.46 656.23 1150.5 655.697C1161.63 654.52 1172.52 660.564 1174.91 669.249C1175.67 672.005 1175.98 680.181 1175.79 692.5L1175.5 711.5H1170C1165.05 711.5 1164.47 711.275 1164.18 709.234L1163.86 706.968L1161.37 708.926C1157.33 712.103 1148.77 713.575 1142.27 712.211C1132.19 710.096 1127.04 703.664 1128.5 695.009C1129.78 687.436 1135.28 683.393 1150.32 678.967C1159.88 676.155 1164 672.778 1164 667.754C1164 658.545 1151.43 657.803 1142.99 666.512C1141.13 668.431 1139.25 670 1138.82 670C1138.39 670 1137.14 668.227 1136.03 666.061L1134.02 662.121L1136.76 660.173ZM693.607 710.418C692.777 708.256 692.834 658.5 693.667 657.667C694.033 657.3 696.685 657 699.56 657C703.403 657 704.947 657.419 705.393 658.582C705.727 659.452 706 671.287 706 684.882C706 702.774 705.669 709.931 704.8 710.8C702.957 712.643 694.348 712.349 693.607 710.418ZM883.233 685.516C883.086 671.225 883.184 658.963 883.451 658.266C883.763 657.455 885.931 657 889.485 657H895.032L894.766 684.25L894.5 711.5H889H883.5L883.233 685.516ZM1111.23 685.516C1111.09 671.225 1111.18 658.963 1111.45 658.266C1111.76 657.455 1113.93 657 1117.48 657H1123.03L1122.77 684.25L1122.5 711.5H1117H1111.5L1111.23 685.516ZM654.217 682.423C667.77 677.642 674.854 667.854 669 662C663.387 656.387 654.626 662.66 651.542 674.499C649.097 683.888 649.2 684.193 654.217 682.423ZM943.757 682.586C957.404 677.771 964.793 667.793 959 662C955.794 658.794 950.427 659.705 946.298 664.154C943.35 667.33 941.26 672.556 940.428 678.833L939.742 684.002L943.757 682.586ZM784 699.077V689.039C784 683.517 783.662 679.014 783.25 679.03C782.838 679.047 781.646 679.556 780.603 680.162C779.56 680.768 775.99 682.328 772.671 683.629C762.115 687.766 759.156 692.883 762.403 701.386C765.509 709.518 773.493 710.272 780.25 703.073L784 699.077ZM1031.92 705.077C1036.72 709.87 1045.05 708.15 1049.43 701.464C1051.74 697.948 1051.35 678.532 1049 680.018C1048.18 680.541 1044.58 681.948 1041.01 683.145C1037.44 684.342 1033.28 686.564 1031.76 688.084C1029.4 690.449 1029 691.659 1029 696.5C1029 701.416 1029.38 702.535 1031.92 705.077ZM1156.76 706.005C1162.45 702.536 1163.99 698.75 1164 688.25C1164 683.163 1163.66 679.044 1163.25 679.098C1162.84 679.153 1158.9 680.737 1154.5 682.619C1141.87 688.021 1138.62 693.361 1142.42 702.452C1144.83 708.226 1150.72 709.687 1156.76 706.005ZM789 734.509C789 725.473 789.382 721.018 790.229 720.171C790.905 719.495 792.143 719.073 792.979 719.233C794.246 719.476 794.546 722.055 794.775 734.646C795.024 748.271 794.878 749.833 793.302 750.438C789.902 751.742 789 748.401 789 734.509ZM810 750.15C808.883 749.982 808.563 720.77 809.667 719.667C811.447 717.886 813.484 719.769 819.485 728.742L826 738.485V729.349C826 721.835 826.289 720.103 827.627 719.59C831.296 718.182 832 720.662 832 735C832 745.823 831.69 749.013 830.544 749.964C828.474 751.682 827.691 750.941 820.726 740.676L814.5 731.5L814 741C813.507 750.376 813.383 750.658 810 750.15ZM846.469 725C843.789 725 842.404 722.995 843.362 720.5C843.806 719.342 845.738 719 851.846 719C857.656 719 860.085 719.398 861 720.5C862.668 722.509 860.663 725 857.378 725C855.002 725 855 725.011 855 737.393C855 748.201 854.78 749.871 853.276 750.447C850.022 751.696 849 748.318 849 736.309V725H846.469ZM873 735.06C873 726.96 873.3 720.033 873.667 719.667C874.033 719.3 877.578 719 881.544 719C886.734 719 889.104 719.42 890 720.5C892.198 723.149 889.474 725 883.378 725H878V728.445C878 731.846 878.061 731.894 882.75 732.195C887.069 732.472 887.5 732.727 887.5 735C887.5 737.273 887.069 737.528 882.75 737.805C878.061 738.106 878 738.154 878 741.555V745H883.378C889.474 745 892.198 746.851 890 749.5C889.135 750.543 886.836 751 882.459 751C878.232 751 875.888 751.162 874.591 750.075C872.821 748.592 873 744.782 873 735.06ZM903.221 736.046C903.068 728.096 903.166 721.009 903.44 720.296C903.776 719.42 906.029 719 910.392 719C915.877 719 917.309 719.389 919.923 721.589C922.476 723.737 923 724.907 923 728.454C923 731.332 922.288 733.635 920.822 735.499L918.645 738.267L920.913 742.543C923.237 746.922 923.399 750.035 921.339 750.721C919.819 751.227 918.407 749.577 915.162 743.5C913.326 740.062 911.869 738.5 910.496 738.5C908.779 738.5 908.43 739.338 908 744.5C907.569 749.667 907.222 750.5 905.5 750.5C903.605 750.5 903.485 749.74 903.221 736.046ZM937.5 750C935.496 748.336 935.266 720.46 937.25 719.667C939.578 718.735 940.491 719.598 946.5 728.417L952.5 737.222L952.789 729.201C953.089 720.88 954.272 718.4 957.373 719.59C958.77 720.126 959 722.228 959 734.485C959 745.95 958.705 749 957.5 750C955.445 751.705 954.32 750.628 947.85 740.764L942.5 732.606L942.211 740.713C941.898 749.507 940.419 752.422 937.5 750ZM974.76 734.975C977.367 727.564 979.879 720.913 980.343 720.195C982.589 716.719 984.572 719.713 989.381 733.834C993.829 746.899 994.121 748.307 992.681 749.748C990.556 751.872 988.699 750.275 987.105 744.955C985.937 741.058 985.73 740.899 982.193 741.193C978.843 741.472 978.364 741.892 977.04 745.724C975.444 750.339 973.375 751.803 971.333 749.761C970.25 748.679 970.849 746.095 974.76 734.975ZM1006.78 744.148C1001.99 736.397 1004.99 723.721 1012.4 720.38C1018.45 717.654 1025.54 720.409 1028.49 726.629C1030.42 730.689 1029.91 733 1027.08 733C1025.8 733 1024.51 731.772 1023.45 729.537C1019.56 721.348 1010 725.233 1010 735C1010 740.746 1013.3 745 1017.77 745C1019.71 745 1024 741.143 1024 739.397C1024 737.429 1026.9 735.026 1028.53 735.649C1033.27 737.469 1026.03 749.341 1019.42 750.581C1014.98 751.413 1009.57 748.657 1006.78 744.148ZM1043.91 750.444C1042.85 749.791 1042.66 720.678 1043.7 719.632C1044.09 719.246 1045.1 719.065 1045.95 719.228C1047.25 719.478 1047.54 721.933 1047.78 734.646C1048.02 747.808 1047.84 749.847 1046.44 750.387C1045.55 750.727 1044.41 750.753 1043.91 750.444ZM1061.24 733.935C1061.66 727.457 1064.28 723.096 1069.22 720.663C1073.27 718.667 1076.09 718.595 1080.36 720.379C1090.29 724.527 1092.56 738.635 1084.59 746.611C1080.02 751.175 1075.31 751.87 1069.33 748.86C1063.09 745.721 1060.75 741.412 1061.24 733.935ZM1102 734.544C1102 726.728 1102.32 720.018 1102.7 719.632C1104.43 717.905 1106.91 720.121 1112.5 728.366L1118.5 737.222L1118.79 729.201C1119.09 720.88 1120.27 718.4 1123.37 719.59C1124.77 720.126 1125 722.228 1125 734.485C1125 745.95 1124.71 749 1123.5 750C1121.44 751.705 1120.32 750.628 1113.85 740.764L1108.5 732.606L1108.21 740.713C1107.9 749.507 1106.42 752.422 1103.5 750C1102.29 749 1102 745.956 1102 734.544ZM1140.76 734.975C1143.37 727.564 1145.88 720.913 1146.34 720.195C1148.59 716.719 1150.57 719.713 1155.38 733.834C1159.83 746.899 1160.12 748.307 1158.68 749.748C1156.56 751.872 1154.7 750.275 1153.1 744.955C1151.94 741.058 1151.73 740.899 1148.19 741.193C1144.84 741.472 1144.36 741.892 1143.04 745.724C1141.44 750.339 1139.38 751.803 1137.33 749.761C1136.25 748.679 1136.85 746.095 1140.76 734.975ZM1172.04 749.066C1170.67 746.516 1170.7 723.435 1172.07 720.874C1172.66 719.777 1173.89 719.025 1174.82 719.202C1176.27 719.481 1176.54 721.256 1176.78 732.262L1177.06 745H1181.91C1187.48 745 1190.12 746.95 1188 749.5C1187.12 750.566 1184.77 751 1179.91 751C1174.17 751 1172.9 750.689 1172.04 749.066ZM912.148 732.807C916.951 732.451 919.176 730.094 917.393 727.25C916.702 726.147 914.762 725.386 912.148 725.193L908 724.885V729V733.115L912.148 732.807ZM1083.5 735C1083.5 730.572 1083.1 729.479 1080.69 727.413C1075.58 723.018 1069.17 724.934 1067 731.503C1063.81 741.172 1073.35 748.899 1080.69 742.587C1083.1 740.521 1083.5 739.428 1083.5 735ZM639 758V743.95V729.9L644.75 730.2L650.5 730.5L650.761 771.434C650.966 803.517 650.75 812.541 649.761 813.169C648.018 814.275 640.61 814.205 639.45 813.071C638.864 812.497 636.407 812.688 633.032 813.571C622.092 816.43 612.588 814.427 605.321 807.728C599.333 802.208 596.806 796.974 596.225 788.884C595.563 779.657 597.911 772.994 603.953 766.952C610.524 760.381 617.329 758 629.538 758H639ZM981.651 732.466C980.889 734.453 981.35 735.409 982.803 734.854C983.314 734.659 983.421 733.633 983.041 732.573C982.384 730.742 982.315 730.737 981.651 732.466ZM1147.65 732.466C1146.89 734.453 1147.35 735.409 1148.8 734.854C1149.31 734.659 1149.42 733.633 1149.04 732.573C1148.38 730.742 1148.32 730.737 1147.65 732.466ZM733.395 743.202C735.327 739.467 742.129 735.258 748.147 734.075C754.55 732.816 757.848 732.878 764.212 734.375C770.358 735.822 774.762 738.216 775.68 740.609C776.236 742.056 772.487 747 770.834 747C770.385 747 768.007 745.465 765.55 743.59C755.449 735.88 742 737.431 742 746.307C742 751.443 746.142 756.243 758.627 765.573C777.437 779.631 782.003 785.422 781.996 795.21C781.992 801.337 779.848 805.533 774.835 809.224C769.196 813.377 765.076 814.5 755.479 814.5C747.286 814.5 745.839 814.196 739.729 811.187C732.418 807.588 731.641 806.075 735.174 802.314C737.905 799.407 738.378 799.424 742.508 802.574C747.485 806.37 755.28 809 761.556 809C769.066 809 772 806.245 772 799.193C772 792.1 769.514 789.119 753.091 776.512C744.443 769.874 737.531 763.738 735.689 761.065C731.915 755.586 730.935 747.96 733.395 743.202ZM655.316 772.786C658.347 766.59 663.554 761.79 669.679 759.543C674.696 757.702 687.148 757.617 691.401 759.394C695.543 761.125 698.001 764.509 697.996 768.473C697.987 775.702 690.456 781.872 674.796 787.476C664.345 791.217 664.22 791.448 668.168 799.764C673.35 810.681 688.967 811.959 697.227 802.142C698.681 800.414 700.575 799 701.435 799C704.376 799 703.042 803.222 698.742 807.521C689.347 816.916 672.626 817.363 662.267 808.497C652.544 800.174 649.519 784.635 655.316 772.786ZM791.657 762.902C792.671 761.891 795.3 760.406 797.5 759.602C802.917 757.623 815.091 757.594 819.768 759.548C824.205 761.401 827.605 764.428 829.826 768.5C831.133 770.896 831.536 775.287 831.826 790.305C832.026 800.648 831.913 810.211 831.576 811.555C831.026 813.746 830.436 814 825.887 814C821.654 814 820.726 813.669 820.29 812C820.037 811.033 819.925 810.449 819.586 810.25C819.07 809.947 818.029 810.538 815.164 812.031C809.561 814.952 802.418 815.554 795.889 813.656C788.507 811.51 784.861 807.614 784.246 801.212C783.348 791.862 788.158 786.864 802.545 782.201C817.717 777.283 820.434 775.158 819.81 768.704C819.562 766.139 818.763 765.14 815.806 763.694C810.412 761.058 805.719 762.248 799.848 767.739C797.237 770.182 794.624 771.886 794.043 771.527C793.462 771.167 792.272 769.493 791.4 767.807C789.923 764.951 789.941 764.615 791.657 762.902ZM834.225 788.884C833.289 775.843 840.086 764.882 852.063 760.116C857.055 758.13 858.719 757.998 872.393 758.506C880.585 758.81 887.672 759.297 888.143 759.589C888.615 759.88 889 778.091 889 800.059V840H883H877V825.933V811.865L874.75 812.587C861.789 816.745 851.352 815.131 843.321 807.728C837.333 802.208 834.806 796.974 834.225 788.884ZM955 764.803C955 763.082 959.052 760.437 963.994 758.934C965.372 758.515 969.767 758.133 973.761 758.086C983.021 757.976 989.024 760.569 992.835 766.325L995.5 770.349V791.924V813.5L990.171 813.805C985.5 814.072 984.775 813.856 984.304 812.055C984.039 811.041 983.924 810.433 983.581 810.247C983.072 809.971 982.06 810.622 979.307 812.25C976.256 814.053 974.011 814.495 968 814.477C955.26 814.437 949 809.503 949 799.5C949 790.304 953.546 786.266 969.242 781.525C974.051 780.072 979.285 777.79 980.874 776.453C986.255 771.925 985.606 765.015 979.612 763.037C974.717 761.421 969.851 762.969 963.808 768.065C961.1 770.349 958.761 772.056 958.61 771.859C956.415 768.98 955 766.215 955 764.803ZM1014.02 760.027C1014.53 760.864 1015.89 760.759 1019.11 759.632C1024.69 757.678 1036.95 757.514 1039.48 759.36C1041.27 760.673 1041.26 760.829 1039.04 763.951C1036.55 767.437 1036.02 767.471 1028.37 764.629C1025.29 763.483 1023.36 763.337 1020.77 764.053C1014.14 765.884 1014.07 766.16 1013.77 791.057L1013.5 813.5H1008H1002.5V786.5V759.5L1007.91 759.192C1011.2 759.005 1013.59 759.332 1014.02 760.027ZM1037.38 779.176C1040 768.948 1045.21 762.887 1054.45 759.326C1058.74 757.675 1071.38 757.716 1075.4 759.394C1082.06 762.177 1083.9 768.876 1079.72 775.102C1076.74 779.532 1069.29 783.923 1058.6 787.553C1048.9 790.846 1048.34 791.817 1051.96 798.914C1055.89 806.631 1062.14 809.806 1070.82 808.504C1074.48 807.955 1076.38 806.885 1079.86 803.405C1084.07 799.194 1085.92 798.253 1087.29 799.627C1088.34 800.674 1085.31 805.517 1081.55 808.825C1074.27 815.213 1060.73 816.64 1051.68 811.973C1043.41 807.704 1038.91 801.416 1036.98 791.41C1036 786.338 1036.07 784.291 1037.38 779.176ZM1102.74 760.5C1103.47 761.803 1104.09 761.738 1107.5 760C1115.45 755.948 1127.53 758.04 1131.86 764.216C1133.2 766.116 1133.28 766.105 1135.86 763.694C1140.26 759.584 1144.47 758 1151 758C1157.91 758 1161.59 759.54 1165.35 764.01C1169.42 768.844 1170.07 773.244 1169.77 794.188L1169.5 813.5H1164H1158.5L1157.99 791.5C1157.49 769.538 1157.07 766.965 1153.58 764.068C1151.45 762.298 1145.43 762.486 1142.49 764.414C1136.93 768.059 1136.54 769.736 1136 792.452L1135.5 813.5H1130H1124.5L1124 790.771L1123.5 768.041L1120.78 765.322C1116.57 761.118 1111.64 761.664 1106.78 766.868L1103 770.923L1102.98 791.211C1102.98 802.37 1102.59 812.09 1102.14 812.811C1101.59 813.679 1099.65 814.017 1096.4 813.811L1091.5 813.5L1091.23 786.25L1090.97 759H1096.43C1100.25 759 1102.15 759.452 1102.74 760.5ZM1180.76 762.203C1182.27 761.148 1184.85 759.807 1186.5 759.222C1191.55 757.431 1203.97 757.802 1208.54 759.88C1213.55 762.154 1217.62 766.866 1219 771.985C1219.6 774.244 1219.93 783.776 1219.77 794.69L1219.5 813.5L1214.17 813.805C1209.47 814.074 1208.78 813.864 1208.29 812.014C1207.99 810.861 1207.47 810.073 1207.12 810.262C1195.06 816.916 1180.47 815.758 1174.56 807.677C1171.69 803.748 1171.71 795.216 1174.59 791.323C1177.37 787.583 1182.95 784.467 1191.5 781.887C1204.53 777.955 1208 775.293 1208 769.221C1208 760.783 1196.17 760.114 1187.55 768.063C1185.2 770.228 1183 772 1182.66 772C1182.32 772 1181.14 770.227 1180.03 768.061L1178.02 764.121L1180.76 762.203ZM901.505 810.825C895.823 806.356 895.046 802.631 895.022 779.75L895 759H901H907V779.48C907 802.016 907.897 806.721 912.601 808.864C917.975 811.313 925.75 809.143 930.729 803.805C932.867 801.513 932.969 800.563 933.229 780.458L933.5 759.5H939.5H945.5L945.781 784.5C945.936 798.25 945.815 810.513 945.512 811.75C945.034 813.704 944.315 814 940.038 814C936.189 814 934.796 813.547 933.661 811.926L932.209 809.853L928.117 811.94C919.915 816.124 907.585 815.608 901.505 810.825ZM639 766.23L636.508 764.597C633.378 762.546 626.469 761.781 622.383 763.033C618.031 764.367 611.377 771.911 609.924 777.159C607.472 786.016 608.906 798.117 613.119 804.127C617.445 810.297 627.919 811.685 635.375 807.077L639 804.837V785.533V766.23ZM668.757 784.586C682.601 779.701 689.774 769.894 683.686 764.174C676.873 757.775 667.332 766.481 665.428 780.833L664.742 786.002L668.757 784.586ZM877 766.23L874.316 764.471C871.144 762.393 864.676 761.696 860.586 762.992C858.983 763.499 855.954 765.592 853.855 767.642C843.49 777.763 844.783 802.244 856 808.249C860.586 810.704 868.338 810.19 873.339 807.1L877 804.837V785.533V766.23ZM1053.22 784.423C1066.77 779.642 1073.85 769.854 1068 764C1062.39 758.387 1053.63 764.66 1050.54 776.499C1048.1 785.888 1048.2 786.193 1053.22 784.423ZM817.471 803.257C819.727 799.938 820 798.534 820 790.268C820 785.171 819.662 781.053 819.25 781.118C816.053 781.62 801.931 788.287 799.629 790.38C796.939 792.826 796.787 793.377 797.204 799.146C797.578 804.313 798.088 805.679 800.38 807.651C805.395 811.964 812.858 810.046 817.471 803.257ZM984 801.077V791.039C984 785.517 983.662 781.007 983.25 781.015C982.838 781.024 981.825 781.468 981 782.003C980.175 782.538 976.527 784.121 972.894 785.52C966.041 788.16 962.726 790.866 961.534 794.792C960.385 798.577 961.958 804.685 964.817 807.545C967.121 809.849 968.08 810.138 971.952 809.702C975.563 809.295 977.155 808.415 980.213 805.138L984 801.077ZM1200.76 808.005C1206.45 804.536 1207.99 800.75 1208 790.25C1208 785.163 1207.66 781.037 1207.25 781.082C1206.84 781.128 1202.29 783.04 1197.15 785.332C1186.95 789.879 1185.1 791.86 1185.04 798.3C1184.94 808.173 1192.67 812.94 1200.76 808.005Z" />
<path d="M1.25 75.662C0.494 75.967 0 78.061 0 80.961C0 83.604 0.561 86.197 1.25 86.74C1.938 87.282 5.386 88.013 8.914 88.365C25.765 90.044 35.109 99.805 38.022 118.773C38.714 123.274 38.964 188.367 38.778 315.5L38.5 505.5L36.28 512C31.706 525.39 22.187 532.396 6.5 533.918L0.5 534.5L0.203003 539.589C0.00200292 543.043 0.358004 545.052 1.313 545.845C2.365 546.718 23.224 546.947 84.11 546.756L165.5 546.5V540.5V534.5L159.161 533.801C142.08 531.917 133.553 524.876 129.125 509C127.8 504.251 127.546 488.973 127.261 397.116L126.931 290.733L130.802 295.616C143.25 311.318 155.359 316.3 183.895 317.458C207.47 318.415 220.188 322.132 230.279 331.015C235.25 335.39 242.398 346.172 246.046 354.797L248.287 360.095L253.393 359.797L258.5 359.5V310.5V261.5H253.608H248.716L245.279 267.984C231.212 294.518 214.665 304 182 304.247C149.269 304.495 136.422 292.961 129.377 257C127.932 249.625 127.655 237.875 127.287 168.25L126.863 88L175.681 88.004C228.325 88.008 236.257 88.586 250.187 93.43C259.693 96.736 265.099 100.15 273.57 108.197C291.593 125.316 304.823 156.061 311.57 196.5C312.488 202 313.69 207.063 314.242 207.75C315.622 209.47 323.915 209.385 324.583 207.644C325.177 206.098 309.493 77.606 308.518 76.03C307.869 74.979 3.843 74.616 1.25 75.662Z"/>
</svg>
