<svg width="399" height="599" viewBox="0 0 399 599" fill="none" xmlns="http://www.w3.org/2000/svg">
<rect x="2.5" y="2.50002" width="394.003" height="593.504" rx="13.5" fill="#122424" stroke="#87BF76" style="fill:#122424;fill:color(display-p3 0.0720 0.1413 0.1413);fill-opacity:1;stroke:#87BF76;stroke:color(display-p3 0.5294 0.7490 0.4627);stroke-opacity:1;" stroke-width="5"/>
<g clip-path="url(#clip0_41_26)">
<g filter="url(#filter0_d_41_26)">
<rect x="-19.788" y="556.701" width="626" height="177.644" transform="rotate(-40.2974 -19.788 556.701)" fill="url(#paint0_linear_41_26)" style="" shape-rendering="crispEdges"/>
</g>
<g filter="url(#filter1_d_41_26)">
<rect x="-152.792" y="258.349" width="626" height="77.1477" transform="rotate(-40.2974 -152.792 258.349)" fill="#375E37" style="fill:#375E37;fill:color(display-p3 0.2172 0.3685 0.2146);fill-opacity:1;"/>
</g>
<g filter="url(#filter2_d_41_26)">
<rect x="107.392" y="706.681" width="626" height="17" transform="rotate(-40.2974 107.392 706.681)" fill="#375E37" style="fill:#375E37;fill:color(display-p3 0.2172 0.3685 0.2146);fill-opacity:1;"/>
</g>
<g filter="url(#filter3_d_41_26)">
<rect x="-90.6077" y="331.681" width="626" height="17" transform="rotate(-40.2974 -90.6077 331.681)" fill="#375E37" style="fill:#375E37;fill:color(display-p3 0.2172 0.3685 0.2146);fill-opacity:1;"/>
</g>
</g>
<g filter="url(#filter4_d_41_26)">
<path fill-rule="evenodd" clip-rule="evenodd" d="M195.208 367.642C195.169 361.926 195.196 357.095 195.269 356.906C195.371 356.639 196.717 356.578 201.278 356.635L207.156 356.708L207.239 357.99C207.298 358.909 207.221 359.27 206.969 359.266C206.775 359.263 205.037 359.023 203.107 358.732C201.177 358.442 199.259 358.202 198.845 358.199L198.093 358.192L198.17 360.69L198.248 363.187L201.352 363.322L204.457 363.457L204.543 364.504C204.59 365.081 204.529 365.649 204.408 365.766C204.286 365.884 203.337 365.689 202.297 365.333C201.258 364.977 199.893 364.682 199.265 364.678L198.122 364.671L198.05 371.353L197.978 378.034H196.628H195.279L195.208 367.642ZM257.566 367.642C257.528 361.926 257.556 357.091 257.631 356.897C257.724 356.653 258.205 356.57 259.186 356.626L260.607 356.708L260.677 366.628L260.748 376.549H261.405C261.766 376.549 263.719 376.306 265.745 376.008C267.77 375.71 269.538 375.535 269.674 375.619C269.809 375.703 269.92 376.248 269.92 376.83C269.92 377.704 269.814 377.915 269.313 378.038C268.979 378.12 266.215 378.152 263.171 378.11L257.637 378.034L257.566 367.642ZM220.903 359.446C221.263 359.21 221.636 358.77 221.732 358.47C221.827 358.169 222.071 357.923 222.274 357.923C222.476 357.923 222.72 358.169 222.816 358.47C222.911 358.77 223.284 359.21 223.644 359.446C224.378 359.927 224.518 360.622 223.881 360.622C223.651 360.622 223.256 360.986 223.003 361.43C222.467 362.373 221.978 362.471 221.729 361.685C221.631 361.38 221.259 360.995 220.9 360.832C220.072 360.455 220.073 359.99 220.903 359.446ZM271.949 359.54C272.323 359.398 272.746 358.976 272.888 358.602C273.03 358.228 273.21 357.923 273.288 357.923C273.511 357.923 275.589 360.059 275.589 360.288C275.589 360.401 275.315 360.614 274.982 360.761C274.648 360.907 274.254 361.3 274.108 361.634C273.761 362.424 273.223 362.408 272.854 361.597C272.692 361.242 272.27 360.819 271.915 360.658C271.082 360.278 271.095 359.865 271.949 359.54ZM333.497 359.541C333.87 359.399 334.314 358.977 334.485 358.603C334.655 358.229 334.836 357.923 334.887 357.923C335.111 357.923 337.138 360.11 337.138 360.352C337.138 360.501 336.95 360.622 336.72 360.622C336.491 360.622 336.096 360.986 335.843 361.43C335.31 362.366 334.721 362.482 334.514 361.691C334.434 361.388 334.021 360.96 333.594 360.739C332.639 360.245 332.609 359.878 333.497 359.541ZM312.741 362.781C312.105 362.782 312.235 361.976 313.232 359.73L313.928 358.163L315.207 358.245C316.054 358.3 316.487 358.449 316.487 358.688C316.487 359.288 313.291 362.781 312.741 362.781ZM278.288 361.612C278.288 360.671 278.369 359.821 278.469 359.722C278.567 359.623 279.291 359.542 280.076 359.542H281.503L281.583 361.364L281.663 363.187L282.743 363.322C283.463 363.411 283.822 363.591 283.822 363.861C283.822 364.131 283.463 364.311 282.743 364.401L281.663 364.536L281.59 370.153C281.528 374.933 281.584 375.91 281.965 376.715C282.543 377.932 282.248 378.225 280.553 378.118C279.348 378.041 279.192 377.952 278.761 377.089C278.355 376.276 278.289 375.322 278.289 370.273L278.288 364.401H277.479C276.849 364.401 276.669 364.281 276.669 363.861C276.669 363.441 276.849 363.322 277.479 363.322H278.288V361.612ZM206.2 373.956C204.255 368.848 206.815 363.904 211.842 363.058C215.13 362.504 217.819 363.776 217.819 365.883C217.819 367.866 215.676 369.613 211.503 371.029C208.905 371.911 208.811 372.065 209.688 373.996C211.12 377.147 214.931 377.742 217.357 375.193C218.329 374.173 218.872 373.913 219.248 374.289C219.341 374.382 219.246 374.789 219.037 375.193C217.987 377.225 214.956 378.637 212.244 378.357C209.674 378.092 207.046 376.178 206.2 373.956ZM230.814 363.498C231.462 363.261 232.356 363.023 232.802 362.969C234.445 362.77 236.716 363.272 236.716 363.834C236.716 364.237 235.606 365.481 235.246 365.481C235.053 365.481 234.334 365.233 233.649 364.93C232.609 364.47 232.231 364.425 231.363 364.659C229.454 365.173 229.446 365.201 229.365 371.975L229.292 378.034H227.808H226.323V370.745V363.457L227.782 363.373C228.698 363.321 229.315 363.41 229.439 363.61C229.587 363.851 229.926 363.823 230.814 363.498ZM237.256 364.69C237.256 364.241 239.282 363.337 240.824 363.1C243.798 362.642 246.244 363.449 247.464 365.291L248.189 366.385V372.209V378.034L247.274 378.121C246.004 378.243 245.084 377.967 245.084 377.466C245.084 377.234 244.993 377.091 244.882 377.148C243.061 378.085 242.336 378.28 240.63 378.29C237.451 378.309 235.636 376.848 235.636 374.267C235.636 371.755 236.612 370.878 241.04 369.407C242.544 368.907 244.022 368.275 244.325 368.002C245.663 366.798 245.549 365.108 244.089 364.498C242.743 363.935 241.474 364.281 239.763 365.674C238.953 366.335 238.255 366.834 238.212 366.785C237.983 366.521 237.256 364.928 237.256 364.69ZM284.481 373.998C282.424 369.299 285.075 363.846 289.794 363.07C293.305 362.493 296.107 363.729 296.104 365.855C296.101 368.147 294.045 369.581 287.552 371.819C287.315 371.901 287.303 372.196 287.507 372.957C288.589 376.993 293.252 378.111 295.897 374.968C296.732 373.976 297.455 373.854 297.455 374.706C297.455 375.048 296.951 375.775 296.245 376.452C292.657 379.889 286.497 378.604 284.481 373.998ZM302.496 363.628C302.948 363.441 303.912 363.19 304.638 363.069C305.364 362.95 306.141 362.886 306.363 362.928C306.586 362.97 307.224 363.081 307.781 363.175C308.999 363.381 309.12 364 308.122 364.937L307.452 365.567L306.322 365.058C304.943 364.436 303.457 364.441 302.494 365.071L301.774 365.543V371.532C301.774 375.83 301.683 377.612 301.45 377.845C300.953 378.342 298.629 378.263 298.429 377.742C298.212 377.178 298.219 370.729 298.441 366.603L298.618 363.322H300.038C300.902 363.322 301.502 363.448 301.567 363.645C301.65 363.894 301.864 363.89 302.496 363.628ZM309.334 364.763C309.332 364.313 311.529 363.313 313.04 363.076C316.803 362.485 319.729 364.088 320.374 367.093C320.79 369.031 320.768 377.423 320.347 377.845C319.805 378.387 317.758 378.252 317.382 377.65C317.063 377.139 317.042 377.139 316.011 377.665C314.502 378.435 312.666 378.583 310.923 378.076C308.989 377.514 307.967 376.454 307.783 374.82C307.494 372.262 308.886 370.737 312.504 369.645C316.559 368.421 317.882 367.276 317.266 365.524C316.625 363.703 314.041 363.764 312.027 365.647C311.331 366.298 310.681 366.831 310.583 366.831C310.345 366.831 309.335 365.16 309.334 364.763ZM326.21 363.583C326.653 363.41 327.561 363.175 328.229 363.058C328.898 362.942 329.606 362.893 329.804 362.949C330.001 363.005 330.495 363.052 330.899 363.052C331.304 363.052 331.859 363.215 332.132 363.414C332.607 363.762 332.601 363.812 331.983 364.648C331.291 365.584 331.161 365.593 329.14 364.841C328.308 364.532 327.787 364.492 327.088 364.686C325.298 365.18 325.279 365.254 325.198 371.975L325.125 378.034H323.64H322.155L322.084 370.678L322.012 363.322H323.613C324.504 363.322 325.258 363.449 325.31 363.608C325.377 363.807 325.652 363.799 326.21 363.583ZM340.313 364.178C341.09 363.625 342.66 363.114 344.022 362.97C347.026 362.652 349.965 364.284 350.611 366.628C350.816 367.372 350.9 369.579 350.849 372.905L350.77 378.034H349.286C347.948 378.034 347.792 377.973 347.714 377.422L347.627 376.81L346.955 377.339C345.865 378.197 343.555 378.594 341.8 378.226C339.078 377.655 337.687 375.919 338.082 373.582C338.428 371.538 339.913 370.446 343.974 369.252C346.554 368.492 347.666 367.581 347.666 366.225C347.666 363.739 344.273 363.538 341.994 365.889C341.492 366.407 340.986 366.831 340.87 366.831C340.753 366.831 340.414 366.352 340.116 365.768L339.573 364.704L340.313 364.178ZM220.683 377.742C220.459 377.158 220.474 363.726 220.699 363.502C220.798 363.403 221.514 363.322 222.29 363.322C223.327 363.322 223.744 363.435 223.864 363.749C223.955 363.983 224.028 367.178 224.028 370.848C224.028 375.678 223.939 377.61 223.704 377.845C223.207 378.342 220.883 378.263 220.683 377.742ZM271.873 371.019C271.833 367.162 271.859 363.851 271.931 363.663C272.016 363.444 272.601 363.322 273.56 363.322H275.058L274.986 370.678L274.914 378.034H273.429H271.945L271.873 371.019ZM333.421 371.019C333.382 367.162 333.408 363.851 333.48 363.663C333.564 363.444 334.15 363.322 335.109 363.322H336.607L336.535 370.678L336.463 378.034H334.978H333.493L333.421 371.019ZM210.049 370.185C213.708 368.894 215.62 366.252 214.04 364.671C212.525 363.156 210.16 364.849 209.327 368.045C208.667 370.58 208.695 370.662 210.049 370.185ZM288.211 370.229C291.895 368.929 293.89 366.235 292.326 364.671C291.46 363.806 290.012 364.052 288.897 365.253C288.101 366.11 287.537 367.521 287.312 369.215L287.127 370.611L288.211 370.229ZM245.084 374.68V371.971C245.084 370.48 244.993 369.264 244.882 369.269C244.771 369.273 244.449 369.411 244.167 369.574C243.886 369.738 242.922 370.159 242.026 370.51C239.177 371.627 238.378 373.008 239.254 375.304C240.093 377.499 242.248 377.702 244.072 375.759L245.084 374.68ZM312.012 376.3C313.305 377.594 315.555 377.13 316.738 375.325C317.36 374.375 317.255 369.134 316.621 369.535C316.399 369.676 315.429 370.056 314.465 370.379C313.502 370.703 312.378 371.302 311.968 371.713C311.33 372.351 311.222 372.678 311.222 373.985C311.222 375.312 311.326 375.614 312.012 376.3ZM345.711 376.55C347.247 375.614 347.664 374.592 347.665 371.758C347.665 370.384 347.575 369.272 347.463 369.287C347.352 369.302 346.289 369.729 345.101 370.237C341.692 371.696 340.814 373.137 341.839 375.591C342.49 377.15 344.081 377.544 345.711 376.55ZM246.434 384.245C246.434 381.806 246.537 380.603 246.766 380.375C246.948 380.192 247.283 380.078 247.508 380.121C247.85 380.187 247.931 380.883 247.993 384.282C248.06 387.96 248.021 388.382 247.596 388.545C246.678 388.897 246.434 387.995 246.434 384.245ZM252.103 388.467C251.802 388.422 251.715 380.536 252.013 380.239C252.494 379.758 253.044 380.266 254.664 382.688L256.422 385.318V382.852C256.422 380.824 256.5 380.356 256.862 380.218C257.852 379.838 258.042 380.507 258.042 384.378C258.042 387.299 257.958 388.161 257.649 388.417C257.09 388.881 256.879 388.681 254.999 385.91L253.318 383.433L253.183 385.997C253.05 388.528 253.016 388.605 252.103 388.467ZM261.948 381.678C261.225 381.678 260.851 381.137 261.109 380.463C261.229 380.151 261.751 380.059 263.4 380.059C264.968 380.059 265.624 380.166 265.871 380.463C266.321 381.006 265.78 381.678 264.893 381.678C264.252 381.678 264.251 381.681 264.251 385.024C264.251 387.941 264.192 388.392 263.786 388.548C262.907 388.885 262.631 387.973 262.631 384.731V381.678H261.948ZM269.11 384.394C269.11 382.207 269.191 380.337 269.29 380.239C269.389 380.139 270.346 380.059 271.417 380.059C272.818 380.059 273.457 380.172 273.699 380.463C274.293 381.179 273.557 381.678 271.912 381.678H270.46V382.608C270.46 383.526 270.476 383.539 271.742 383.621C272.908 383.695 273.024 383.764 273.024 384.378C273.024 384.991 272.908 385.06 271.742 385.135C270.476 385.216 270.46 385.229 270.46 386.147V387.077H271.912C273.557 387.077 274.293 387.577 273.699 388.292C273.466 388.574 272.845 388.697 271.664 388.697C270.522 388.697 269.89 388.741 269.54 388.447C269.062 388.047 269.11 387.018 269.11 384.394ZM277.268 384.66C277.227 382.514 277.253 380.601 277.327 380.408C277.418 380.172 278.026 380.059 279.204 380.059C280.685 380.059 281.071 380.164 281.777 380.757C282.466 381.337 282.608 381.653 282.608 382.611C282.608 383.388 282.415 384.009 282.02 384.512L281.432 385.26L282.044 386.414C282.672 387.596 282.715 388.436 282.159 388.622C281.749 388.758 281.368 388.313 280.492 386.672C279.996 385.744 279.603 385.323 279.232 385.323C278.769 385.323 278.674 385.549 278.558 386.942C278.442 388.337 278.348 388.562 277.884 388.562C277.372 388.562 277.34 388.357 277.268 384.66ZM286.522 388.427C285.981 387.978 285.919 380.453 286.454 380.239C287.083 379.987 287.329 380.22 288.952 382.601L290.571 384.978L290.649 382.812C290.73 380.566 291.05 379.897 291.887 380.218C292.264 380.362 292.326 380.93 292.326 384.239C292.326 387.334 292.246 388.157 291.921 388.427C291.366 388.887 291.063 388.597 289.316 385.934L287.872 383.731L287.794 385.92C287.709 388.294 287.31 389.081 286.522 388.427ZM296.58 384.371C297.284 382.37 297.962 380.575 298.087 380.381C298.694 379.443 299.229 380.251 300.527 384.063C301.728 387.59 301.807 387.97 301.418 388.359C300.844 388.932 300.343 388.501 299.913 387.065C299.598 386.013 299.542 385.97 298.587 386.05C297.683 386.125 297.553 386.238 297.196 387.273C296.765 388.519 296.206 388.914 295.655 388.362C295.363 388.07 295.525 387.373 296.58 384.371ZM305.225 386.847C303.932 384.755 304.741 381.333 306.742 380.431C308.374 379.695 310.289 380.439 311.086 382.118C311.606 383.214 311.467 383.838 310.704 383.838C310.358 383.838 310.011 383.506 309.724 382.903C308.675 380.692 306.093 381.741 306.093 384.378C306.093 385.929 306.986 387.077 308.19 387.077C308.714 387.077 309.873 386.036 309.873 385.565C309.873 385.033 310.657 384.385 311.095 384.553C312.375 385.044 310.421 388.249 308.637 388.584C307.439 388.808 305.977 388.064 305.225 386.847ZM315.247 388.547C314.962 388.371 314.909 380.511 315.191 380.229C315.295 380.125 315.568 380.076 315.798 380.12C316.15 380.188 316.228 380.85 316.291 384.282C316.356 387.835 316.309 388.386 315.929 388.531C315.689 388.623 315.382 388.63 315.247 388.547ZM319.925 384.09C320.039 382.341 320.747 381.164 322.079 380.507C323.173 379.969 323.936 379.949 325.088 380.431C327.769 381.551 328.382 385.359 326.229 387.512C324.997 388.744 323.723 388.932 322.109 388.119C320.425 387.272 319.795 386.109 319.925 384.09ZM330.929 384.255C330.929 382.145 331.014 380.333 331.118 380.229C331.584 379.763 332.255 380.361 333.763 382.587L335.383 384.978L335.461 382.812C335.542 380.566 335.861 379.897 336.699 380.218C337.076 380.362 337.138 380.93 337.138 384.239C337.138 387.334 337.058 388.157 336.733 388.427C336.178 388.887 335.874 388.597 334.128 385.934L332.684 383.731L332.606 385.92C332.521 388.294 332.122 389.081 331.334 388.427C331.009 388.157 330.929 387.335 330.929 384.255ZM341.392 384.371C342.096 382.37 342.774 380.575 342.899 380.381C343.506 379.443 344.041 380.251 345.339 384.063C346.54 387.59 346.619 387.97 346.23 388.359C345.656 388.932 345.155 388.501 344.725 387.065C344.409 386.013 344.354 385.97 343.399 386.05C342.494 386.125 342.365 386.238 342.008 387.273C341.577 388.519 341.018 388.914 340.467 388.362C340.175 388.07 340.336 387.373 341.392 384.371ZM349.835 388.175C349.466 387.486 349.474 381.256 349.844 380.564C350.002 380.268 350.336 380.065 350.586 380.113C350.978 380.188 351.051 380.668 351.116 383.639L351.191 387.077H352.5C354.004 387.077 354.716 387.604 354.145 388.292C353.906 388.58 353.274 388.697 351.962 388.697C350.412 388.697 350.07 388.613 349.835 388.175ZM279.678 383.786C280.975 383.69 281.575 383.053 281.094 382.286C280.907 381.988 280.384 381.782 279.678 381.73L278.558 381.647V382.758V383.869L279.678 383.786ZM325.935 384.378C325.935 383.182 325.826 382.887 325.177 382.33C323.798 381.143 322.066 381.66 321.48 383.434C320.619 386.044 323.196 388.13 325.177 386.426C325.826 385.868 325.935 385.573 325.935 384.378ZM205.942 390.587V386.794V383.001L207.494 383.082L209.046 383.163L209.116 394.213C209.172 402.874 209.113 405.31 208.847 405.48C208.376 405.778 206.376 405.759 206.063 405.453C205.905 405.298 205.242 405.35 204.33 405.588C201.377 406.36 198.812 405.819 196.85 404.011C195.233 402.521 194.551 401.108 194.394 398.924C194.216 396.433 194.85 394.634 196.481 393.003C198.254 391.229 200.091 390.587 203.387 390.587H205.942ZM298.441 383.694C298.235 384.23 298.359 384.488 298.752 384.338C298.889 384.286 298.918 384.009 298.816 383.723C298.638 383.228 298.62 383.227 298.441 383.694ZM343.252 383.694C343.047 384.23 343.171 384.488 343.563 384.338C343.701 384.286 343.73 384.009 343.628 383.723C343.45 383.228 343.432 383.227 343.252 383.694ZM231.424 386.592C231.945 385.584 233.781 384.447 235.406 384.128C237.134 383.788 238.025 383.805 239.743 384.209C241.402 384.6 242.591 385.246 242.838 385.892C242.989 386.283 241.977 387.617 241.53 387.617C241.409 387.617 240.767 387.203 240.104 386.697C237.377 384.615 233.747 385.034 233.747 387.43C233.747 388.817 234.865 390.112 238.235 392.631C243.313 396.426 244.545 397.989 244.543 400.631C244.542 402.285 243.964 403.418 242.61 404.415C241.088 405.536 239.976 405.839 237.385 405.839C235.173 405.839 234.783 405.757 233.133 404.944C231.16 403.973 230.95 403.565 231.904 402.549C232.641 401.764 232.769 401.769 233.884 402.619C235.227 403.644 237.331 404.354 239.026 404.354C241.053 404.354 241.845 403.61 241.845 401.707C241.845 399.792 241.174 398.987 236.741 395.584C234.406 393.792 232.54 392.136 232.043 391.414C231.024 389.935 230.76 387.876 231.424 386.592ZM210.346 394.578C211.164 392.905 212.57 391.61 214.223 391.003C215.578 390.506 218.939 390.483 220.087 390.963C221.205 391.43 221.869 392.344 221.868 393.414C221.865 395.365 219.832 397.031 215.605 398.544C212.783 399.554 212.75 399.616 213.816 401.861C215.214 404.808 219.43 405.153 221.66 402.503C222.053 402.036 222.564 401.655 222.796 401.655C223.59 401.655 223.23 402.794 222.069 403.955C219.533 406.491 215.019 406.612 212.223 404.218C209.598 401.972 208.781 397.777 210.346 394.578ZM247.151 391.91C247.425 391.637 248.135 391.236 248.729 391.019C250.191 390.485 253.477 390.477 254.74 391.004C255.938 391.505 256.856 392.322 257.455 393.421C257.808 394.068 257.917 395.253 257.995 399.307C258.049 402.099 258.019 404.681 257.928 405.044C257.779 405.635 257.62 405.704 256.392 405.704C255.249 405.704 254.999 405.615 254.881 405.164C254.813 404.903 254.782 404.745 254.691 404.691C254.552 404.61 254.271 404.769 253.497 405.172C251.985 405.961 250.056 406.123 248.294 405.611C246.301 405.032 245.317 403.98 245.151 402.252C244.908 399.728 246.207 398.378 250.091 397.12C254.186 395.792 254.92 395.218 254.751 393.476C254.684 392.784 254.469 392.514 253.671 392.124C252.214 391.412 250.948 391.733 249.363 393.216C248.658 393.875 247.952 394.335 247.796 394.238C247.639 394.141 247.318 393.689 247.082 393.234C246.683 392.463 246.688 392.372 247.151 391.91ZM258.643 398.924C258.39 395.403 260.225 392.444 263.458 391.158C264.806 390.622 265.255 390.586 268.946 390.723C271.158 390.805 273.071 390.937 273.198 391.016C273.325 391.094 273.429 396.01 273.429 401.94V412.723H271.81H270.19V408.925V405.128L269.583 405.322C266.084 406.445 263.266 406.009 261.098 404.011C259.482 402.521 258.8 401.108 258.643 398.924ZM291.246 392.423C291.246 391.958 292.34 391.244 293.674 390.839C294.046 390.726 295.232 390.623 296.311 390.61C298.81 390.58 300.431 391.28 301.46 392.834L302.179 393.92V399.744V405.569L300.741 405.651C299.48 405.723 299.284 405.665 299.157 405.179C299.085 404.905 299.054 404.741 298.962 404.691C298.824 404.616 298.551 404.792 297.808 405.231C296.984 405.718 296.378 405.837 294.755 405.833C291.316 405.822 289.626 404.49 289.626 401.79C289.626 399.307 290.854 398.217 295.091 396.937C296.389 396.545 297.802 395.929 298.231 395.568C299.683 394.346 299.508 392.48 297.89 391.946C296.569 391.51 295.255 391.928 293.624 393.304C292.893 393.92 292.261 394.381 292.221 394.328C291.628 393.551 291.246 392.804 291.246 392.423ZM307.178 391.134C307.317 391.36 307.684 391.331 308.553 391.027C310.06 390.5 313.369 390.455 314.051 390.954C314.536 391.308 314.532 391.35 313.931 392.193C313.261 393.134 313.116 393.143 311.053 392.376C310.221 392.067 309.701 392.027 309.001 392.221C307.211 392.715 307.192 392.789 307.111 399.51L307.038 405.569H305.554H304.069V398.28V390.992L305.528 390.908C306.416 390.858 307.062 390.946 307.178 391.134ZM313.484 396.303C314.191 393.542 315.599 391.906 318.094 390.945C319.251 390.499 322.664 390.51 323.748 390.963C325.546 391.714 326.043 393.523 324.913 395.203C324.11 396.399 322.099 397.585 319.214 398.564C316.596 399.453 316.442 399.716 317.419 401.631C318.482 403.715 320.168 404.572 322.512 404.22C323.5 404.072 324.012 403.783 324.952 402.844C326.089 401.707 326.588 401.453 326.959 401.824C327.241 402.106 326.424 403.414 325.408 404.307C323.443 406.031 319.787 406.417 317.345 405.157C315.112 404.004 313.899 402.307 313.377 399.606C313.112 398.236 313.13 397.684 313.484 396.303ZM331.129 391.261C331.325 391.613 331.493 391.596 332.414 391.126C334.559 390.033 337.821 390.597 338.99 392.265C339.35 392.778 339.374 392.775 340.07 392.124C341.257 391.014 342.394 390.587 344.157 390.587C346.023 390.587 347.016 391.002 348.032 392.209C349.13 393.514 349.304 394.702 349.224 400.356L349.151 405.569H347.666H346.181L346.044 399.63C345.907 393.701 345.796 393.007 344.854 392.225C344.278 391.747 342.654 391.798 341.859 392.318C340.358 393.302 340.253 393.755 340.107 399.887L339.972 405.569H338.488H337.003L336.868 399.433L336.733 393.297L335.998 392.563C334.863 391.428 333.53 391.576 332.22 392.981L331.199 394.075L331.195 399.552C331.192 402.564 331.09 405.188 330.966 405.383C330.818 405.617 330.294 405.708 329.418 405.653L328.094 405.569L328.023 398.213L327.951 390.857H329.426C330.457 390.857 330.97 390.979 331.129 391.261ZM352.191 391.721C352.597 391.436 353.294 391.074 353.74 390.916C355.103 390.433 358.455 390.533 359.69 391.094C361.041 391.708 362.14 392.98 362.512 394.362C362.676 394.972 362.764 397.545 362.722 400.491L362.648 405.569L361.21 405.651C359.94 405.724 359.753 405.667 359.623 405.168C359.542 404.856 359.399 404.644 359.307 404.695C356.052 406.491 352.113 406.178 350.518 403.997C349.742 402.936 349.746 400.633 350.526 399.582C351.275 398.573 352.782 397.731 355.09 397.035C358.608 395.973 359.544 395.255 359.544 393.616C359.544 391.338 356.35 391.157 354.023 393.303C353.388 393.888 352.794 394.366 352.703 394.366C352.611 394.366 352.292 393.887 351.993 393.303L351.451 392.239L352.191 391.721ZM276.805 404.847C275.271 403.64 275.061 402.635 275.055 396.458L275.049 390.857H276.669H278.288V396.385C278.288 402.469 278.531 403.739 279.8 404.317C281.251 404.979 283.35 404.393 284.694 402.952C285.271 402.333 285.299 402.077 285.369 396.649L285.442 390.992H287.062H288.682L288.757 397.74C288.799 401.452 288.767 404.763 288.685 405.096C288.556 405.624 288.362 405.704 287.207 405.704C286.168 405.704 285.792 405.582 285.486 405.144L285.094 404.584L283.989 405.148C281.775 406.277 278.446 406.138 276.805 404.847ZM205.942 392.808L205.269 392.367C204.424 391.814 202.559 391.607 201.456 391.945C200.281 392.305 198.485 394.342 198.092 395.759C197.431 398.15 197.818 401.416 198.955 403.039C200.123 404.704 202.95 405.079 204.963 403.835L205.942 403.23V398.019V392.808ZM213.975 397.764C217.712 396.445 219.648 393.797 218.005 392.253C216.165 390.526 213.59 392.876 213.076 396.75L212.891 398.146L213.975 397.764ZM270.19 392.808L269.465 392.333C268.609 391.772 266.863 391.584 265.759 391.934C265.326 392.071 264.509 392.636 263.942 393.189C261.144 395.922 261.493 402.53 264.521 404.151C265.759 404.814 267.852 404.675 269.202 403.841L270.19 403.23V398.019V392.808ZM317.76 397.72C321.419 396.429 323.331 393.787 321.751 392.206C320.235 390.691 317.87 392.384 317.038 395.58C316.378 398.115 316.406 398.197 317.76 397.72ZM254.12 402.804C254.729 401.908 254.803 401.529 254.803 399.297C254.803 397.921 254.711 396.81 254.6 396.827C253.737 396.963 249.925 398.763 249.304 399.328C248.577 399.988 248.536 400.137 248.649 401.694C248.75 403.089 248.888 403.458 249.506 403.99C250.86 405.154 252.875 404.636 254.12 402.804ZM299.075 402.215V399.506C299.075 398.015 298.983 396.797 298.872 396.8C298.761 396.802 298.488 396.922 298.265 397.066C298.042 397.211 297.057 397.638 296.077 398.016C294.227 398.728 293.332 399.459 293.01 400.519C292.7 401.54 293.124 403.189 293.896 403.961C294.518 404.583 294.777 404.661 295.822 404.544C296.797 404.434 297.227 404.196 298.052 403.312L299.075 402.215ZM357.589 404.086C359.125 403.149 359.542 402.127 359.543 399.293C359.543 397.919 359.452 396.805 359.341 396.818C359.23 396.83 358.003 397.346 356.614 397.965C353.86 399.192 353.36 399.727 353.344 401.466C353.319 404.131 355.404 405.418 357.589 404.086Z" fill="#4994CE" style="fill:#4994CE;fill:color(display-p3 0.2863 0.5804 0.8078);fill-opacity:1;"/>
<path d="M222.979 225.522C226.438 225.198 235.947 225.632 240.391 226.315C246.398 227.239 252.367 229.137 258.453 232.058C261.654 233.594 268.365 237.455 269.669 238.511L270.33 239.046L265.51 252.646C262.86 260.125 260.569 266.401 260.419 266.594C260.134 266.96 258.752 266.808 258.178 266.347C257.993 266.198 257.823 264.437 257.731 261.722C257.145 244.275 248.639 232.571 234.317 229.504C231.071 228.81 223.952 228.8 220.955 229.487C214 231.081 209.587 235.428 208.478 241.778C206.847 251.118 211.26 258.944 222.305 266.292C225.597 268.482 226.827 269.197 235.262 273.815C244.063 278.634 247.43 280.608 251.864 283.55C263.682 291.393 270.471 300.75 272.58 312.1C273.287 315.908 273.202 324.462 272.421 328.127C270.985 334.864 268.022 340.434 263.48 344.936C259.686 348.696 254.72 351.584 248.581 353.6C242.7 355.531 237.62 356.275 230.346 356.272C223.212 356.268 219.128 355.675 213.261 353.789C206.836 351.725 202.126 349.17 196.601 344.752C196.254 344.475 196.298 344.195 196.934 342.604C197.575 341.002 197.651 340.505 197.543 338.604C197.345 335.08 195.6 332.291 192.622 330.735L191.127 329.954L191.126 318.467C191.126 309.893 191.207 306.899 191.449 306.657C191.896 306.21 193.419 306.249 193.807 306.717C193.983 306.928 194.487 308.477 194.927 310.159C195.92 313.951 197.807 319.566 199.399 323.459C205.635 338.721 215.535 349.513 225.814 352.255C229.636 353.275 237.149 353 242.131 351.659C248.795 349.864 253.459 345.076 255.158 338.285C255.662 336.27 255.758 335.126 255.767 331.033C255.777 326.749 255.705 325.921 255.16 324.038C252.474 314.763 244.863 307.957 224.375 296.513C209.397 288.147 201.331 281.268 195.878 272.213C191.762 265.377 190.32 254.515 192.49 246.686C194.545 239.267 200.975 232.303 208.977 228.826C212.899 227.121 217.504 226.035 222.979 225.522Z" fill="#FFB90B" style="fill:#FFB90B;fill:color(display-p3 1.0000 0.7255 0.0431);fill-opacity:1;"/>
<path d="M141.237 210.921C141.727 210.433 184.617 210.454 185.286 210.943C185.651 211.21 185.74 211.597 185.675 212.631L185.59 213.971L184.033 214.165C179.267 214.757 176.938 216.646 175.832 220.816C175.388 222.492 175.35 225.885 175.262 272.146C175.197 306.138 175.258 322.637 175.458 324.724C175.831 328.635 176.503 330.465 178.186 332.162L179.478 333.464L179.092 334.558C178.88 335.16 178.706 336.184 178.706 336.835V338.018L141.048 337.879L140.965 336.576C140.919 335.859 141.012 335.116 141.171 334.925C141.33 334.733 142.276 334.518 143.278 334.446C146.546 334.21 149.301 332.282 150.341 329.502C150.634 328.718 151.007 327.064 151.169 325.825C151.376 324.244 151.438 308.406 151.377 272.821C151.301 227.613 151.245 221.923 150.867 220.72C149.599 216.681 147.646 214.977 143.559 214.344C142.475 214.176 141.436 213.997 141.25 213.946C140.811 213.825 140.8 211.358 141.237 210.921Z" fill="#4994CE" style="fill:#4994CE;fill:color(display-p3 0.2863 0.5804 0.8078);fill-opacity:1;"/>
<path d="M99.178 248.687C99.2997 248.37 102.764 248.322 121.534 248.38L143.745 248.449V251.395L141.515 251.741C138.811 252.161 136.973 253.047 135.686 254.55C134.592 255.829 134.033 257.318 133.622 260.057C133.429 261.343 133.362 278.46 133.412 313.508L133.487 365.068L134.277 366.628C135.251 368.552 137.193 370.408 139.232 371.363L140.775 372.087L150.628 372.069C159.748 372.053 160.693 372.007 163.316 371.451C170.258 369.979 174.619 366.358 178.155 359.129C179.537 356.304 181.665 350.476 181.677 349.483C181.688 348.544 182.081 348.413 183.861 348.754C184.81 348.936 185.617 349.108 185.656 349.137C185.741 349.201 184.989 355.797 184.641 358.05C184.503 358.941 183.956 363.131 183.424 367.362C182.893 371.592 182.362 375.149 182.245 375.267C182.128 375.384 172.264 375.445 160.324 375.403L138.616 375.326L136.456 374.566C131.877 372.955 127.846 369.602 124.6 364.706C123.65 363.272 121.63 359.851 120.111 357.105C114.708 347.332 112.597 344.481 108.965 342.052C106.013 340.077 103.718 339.423 99.7426 339.423C95.8189 339.423 93.8701 339.992 90.8337 342.023C87.7269 344.101 85.6342 346.919 84.3451 350.761C82.056 357.583 84.9578 365.62 91.1126 369.507C93.8019 371.206 96.4768 371.994 99.5847 372.002C104.865 372.017 107.668 370.103 108.95 365.608C109.331 364.272 109.432 362.42 109.528 355.032C109.63 347.208 109.699 346.055 110.069 345.913C111.038 345.541 113.434 348.829 118.226 357.105C124.202 367.425 126.651 370.578 130.989 373.534C131.695 374.014 132.272 374.453 132.272 374.507C132.272 374.563 132.198 374.8 132.108 375.034C131.961 375.418 130.166 375.461 114.604 375.461C98.1588 375.461 97.1544 375.434 95.1292 374.922C86.3253 372.697 80.1598 364.803 80.1759 355.779C80.1821 352.339 80.722 349.966 82.1716 347.003C85.8748 339.436 93.7113 335.148 102.12 336.089C103.956 336.295 106.922 337.132 109.131 338.068C109.589 338.262 109.606 336.528 109.527 298.894C109.454 264.054 109.396 259.362 109.021 258.168C107.731 254.05 105.762 252.416 101.271 251.733L99.2027 251.419L99.1184 250.241C99.072 249.593 99.0986 248.894 99.178 248.687Z" fill="#87BF76" style="fill:#87BF76;fill:color(display-p3 0.5294 0.7490 0.4627);fill-opacity:1;"/>
<path d="M24.9034 206.145C25.6033 205.863 107.648 205.961 107.851 206.244C108.114 206.67 112.347 241.354 112.188 241.774C112.007 242.244 109.769 242.267 109.396 241.803C109.247 241.617 108.923 240.25 108.675 238.766C106.853 227.849 103.282 219.549 98.4166 214.928C96.1299 212.756 94.6704 211.834 92.1044 210.942C88.3439 209.634 86.2025 209.478 71.9912 209.477L58.8129 209.476L58.9273 231.14C59.0266 249.935 59.1013 253.107 59.4914 255.098C61.3932 264.805 64.8613 267.919 73.6971 267.852C82.515 267.785 86.982 265.226 90.7794 258.063L91.7071 256.312H94.3483V282.768L91.5914 282.928L90.9863 281.498C90.0016 279.17 88.072 276.259 86.7301 275.078C84.006 272.68 80.5726 271.677 74.2085 271.418C66.5053 271.106 63.2364 269.761 59.8761 265.522L58.831 264.204L58.9202 292.922C58.9971 317.719 59.0657 321.843 59.4234 323.125C60.6188 327.411 62.9207 329.312 67.5317 329.82L69.2429 330.009V333.249L47.2717 333.318C30.8368 333.369 25.2054 333.307 24.9206 333.072C24.6628 332.858 24.5666 332.315 24.6208 331.383L24.701 330.009L26.3207 329.852C30.5554 329.441 33.1251 327.55 34.3599 323.935L34.9591 322.181L35.0342 270.89C35.0844 236.57 35.017 218.998 34.8302 217.783C34.0438 212.663 31.5212 210.028 26.9723 209.575C26.0201 209.48 25.0893 209.282 24.9034 209.136C24.7174 208.989 24.566 208.289 24.566 207.576C24.566 206.793 24.6994 206.228 24.9034 206.145Z" fill="#E6255C" style="fill:#E6255C;fill:color(display-p3 0.9020 0.1451 0.3608);fill-opacity:1;"/>
<circle cx="187.616" cy="339.332" r="5.12907" fill="#E6255C" style="fill:#E6255C;fill:color(display-p3 0.9020 0.1451 0.3608);fill-opacity:1;"/>
<path d="M266.341 216.645C267.26 219.959 268.371 220.964 272.026 221.789L274.051 222.246L272.064 222.585C268.559 223.182 266.681 224.926 266.203 228.026C266.105 228.657 265.945 229.173 265.846 229.173C265.747 229.173 265.447 228.319 265.178 227.276C264.689 225.376 263.842 224.041 262.751 223.448C262.433 223.274 261.322 222.926 260.283 222.674C259.244 222.421 258.576 222.153 258.798 222.078C259.021 222.003 260.036 221.73 261.054 221.471C263.841 220.761 264.605 219.872 265.566 216.216L265.886 215.001L266.341 216.645Z" fill="#4994CE" style="fill:#4994CE;fill:color(display-p3 0.2863 0.5804 0.8078);fill-opacity:1;"/>
<path d="M276.114 204.638C276.683 202.177 276.726 202.092 276.942 202.988C277.068 203.508 277.468 204.916 277.833 206.117C279.035 210.078 281.089 211.592 286.647 212.608L289.157 213.068L286.434 213.524C280.478 214.524 278.401 216.403 277.187 221.888C276.639 224.367 276.615 224.357 275.927 221.345C274.743 216.167 273.152 214.675 267.614 213.553C265.861 213.198 265.339 213.009 265.817 212.903C272.091 211.521 273.284 210.95 274.647 208.677C275.181 207.787 275.745 206.235 276.114 204.638Z" fill="#4994CE" style="fill:#4994CE;fill:color(display-p3 0.2863 0.5804 0.8078);fill-opacity:1;"/>
<path d="M261.084 207.358C261.233 207.354 261.394 207.831 261.792 208.86C262.071 209.582 263.55 210.544 264.384 210.546C265.45 210.548 265.292 211.015 264.164 211.196C262.759 211.42 261.603 212.546 261.34 213.948L261.141 215.001L260.691 213.651C260.195 212.167 258.965 211.087 257.768 211.087C256.851 211.087 257.191 210.808 258.734 210.296C259.905 209.908 260.059 209.753 260.553 208.462C260.827 207.746 260.951 207.361 261.084 207.358Z" fill="#4994CE" style="fill:#4994CE;fill:color(display-p3 0.2863 0.5804 0.8078);fill-opacity:1;"/>
<path d="M303.143 186C303.465 186.018 343.77 271.837 343.586 272.114C343.536 272.189 342.056 272.872 340.297 273.634C331.815 277.304 322.008 283.299 314.058 289.673C296.137 304.041 283.363 322.217 276.314 343.381C274.875 347.7 273.354 353.122 273.354 353.931C273.354 353.996 273.5 353.768 273.751 353.321C273.543 353.926 273.374 354.427 273.257 354.779C273.248 354.806 273.239 354.833 273.231 354.858C273.114 354.223 273.253 352.586 273.658 349.725C276.327 330.839 282.414 312.749 290.779 298.84C295.396 291.163 299.615 285.748 305.606 279.808C311.424 274.04 317.194 269.75 323.407 266.572C325.202 265.655 326.83 264.853 327.027 264.791C327.273 264.713 322.973 255.468 313.164 234.99C305.343 218.661 298.898 205.253 298.841 205.193C298.639 204.982 295.223 206.04 293.554 206.829C292.624 207.269 291.185 208.092 290.356 208.658L288.848 209.687L286.955 209.206C284.287 208.529 282.662 207.697 281.615 206.474C280.773 205.491 279.563 202.884 279.563 202.053C279.563 201.635 283.578 198.014 286.59 195.716C290.138 193.008 294.834 190.061 298.888 187.999C301.049 186.9 302.964 186 303.143 186Z" fill="#E6255C" style="fill:#E6255C;fill:color(display-p3 0.9020 0.1451 0.3608);fill-opacity:1;"/>
<path d="M324.968 186C325.173 186.008 335.605 208.003 349.52 237.763C362.826 266.221 373.695 289.525 373.681 289.564C373.659 289.587 372.244 289.81 370.537 290.057C363.303 291.108 356.318 292.778 349.075 295.189C333.786 300.28 319.067 308.53 304.804 320.006C294.513 328.285 282.531 340.832 275.395 350.8C274.473 352.089 274.087 352.636 274.815 351.884L273.755 353.136C273.672 353.056 273.632 353.11 273.654 353.256L273.285 353.692C273.21 353.526 273.179 353.188 273.195 352.663L273.424 352.062C273.379 352.299 273.354 352.475 273.354 352.577C273.354 352.758 274.48 350.671 275.855 347.939C278.935 341.822 281.845 337.137 286.021 331.578C297.518 316.27 313.816 302.144 333.856 290.117C340.775 285.965 348.472 281.87 353.26 279.795C354.224 279.377 355.111 278.952 355.231 278.852C355.349 278.751 346.255 259.062 335.02 235.099C323.787 211.14 314.541 191.346 314.471 191.106C314.38 190.79 315.189 190.286 317.675 189.109C321.891 187.114 324.517 185.994 324.968 186Z" fill="#87BF76" style="fill:#87BF76;fill:color(display-p3 0.5294 0.7490 0.4627);fill-opacity:1;"/>
<path d="M364.936 306.863C366.979 312.458 368.617 317.07 368.581 317.119C368.54 317.158 366.989 317.067 365.133 316.915C355.003 316.085 341.785 317.602 330.392 320.901C312.232 326.161 292.558 337.041 277.084 350.382C275.352 351.875 273.854 353.016 273.755 352.916C273.656 352.817 273.615 352.903 273.665 353.107C273.689 353.206 273.681 353.307 273.651 353.391L273.305 353.514C273.241 353.414 273.203 353.217 273.191 352.914L275.926 349.837C275.745 350.085 275.566 350.331 275.391 350.577C273.75 352.869 273.806 352.815 278.811 347.278C287.707 337.438 299.793 328.318 312.111 322.15C321.331 317.535 331.603 314.079 341.6 312.232C345.674 311.478 351.544 310.765 353.701 310.761L355.091 310.759L354.301 308.127C353.866 306.679 353.098 304.12 352.594 302.439L351.678 299.383L352.939 298.842C354.652 298.107 358.363 297.047 359.933 296.845L361.219 296.68L364.936 306.863Z" fill="#4994CE" style="fill:#4994CE;fill:color(display-p3 0.2863 0.5804 0.8078);fill-opacity:1;"/>
</g>
<defs>
<filter id="filter0_d_41_26" x="-23.788" y="151.833" width="600.341" height="548.357" filterUnits="userSpaceOnUse" color-interpolation-filters="sRGB">
<feFlood flood-opacity="0" result="BackgroundImageFix"/>
<feColorMatrix in="SourceAlpha" type="matrix" values="0 0 0 0 0 0 0 0 0 0 0 0 0 0 0 0 0 0 127 0" result="hardAlpha"/>
<feOffset dy="4"/>
<feGaussianBlur stdDeviation="2"/>
<feComposite in2="hardAlpha" operator="out"/>
<feColorMatrix type="matrix" values="0 0 0 0 0 0 0 0 0 0 0 0 0 0 0 0 0 0 0.25 0"/>
<feBlend mode="normal" in2="BackgroundImageFix" result="effect1_dropShadow_41_26"/>
<feBlend mode="normal" in="SourceGraphic" in2="effect1_dropShadow_41_26" result="shape"/>
</filter>
<filter id="filter1_d_41_26" x="-156.792" y="-146.519" width="535.345" height="471.709" filterUnits="userSpaceOnUse" color-interpolation-filters="sRGB">
<feFlood flood-opacity="0" result="BackgroundImageFix"/>
<feColorMatrix in="SourceAlpha" type="matrix" values="0 0 0 0 0 0 0 0 0 0 0 0 0 0 0 0 0 0 127 0" result="hardAlpha"/>
<feOffset dy="4"/>
<feGaussianBlur stdDeviation="2"/>
<feComposite in2="hardAlpha" operator="out"/>
<feColorMatrix type="matrix" values="0 0 0 0 0 0 0 0 0 0 0 0 0 0 0 0 0 0 0.25 0"/>
<feBlend mode="normal" in2="BackgroundImageFix" result="effect1_dropShadow_41_26"/>
<feBlend mode="normal" in="SourceGraphic" in2="effect1_dropShadow_41_26" result="shape"/>
</filter>
<filter id="filter2_d_41_26" x="103.392" y="301.813" width="496.444" height="425.834" filterUnits="userSpaceOnUse" color-interpolation-filters="sRGB">
<feFlood flood-opacity="0" result="BackgroundImageFix"/>
<feColorMatrix in="SourceAlpha" type="matrix" values="0 0 0 0 0 0 0 0 0 0 0 0 0 0 0 0 0 0 127 0" result="hardAlpha"/>
<feOffset dy="4"/>
<feGaussianBlur stdDeviation="2"/>
<feComposite in2="hardAlpha" operator="out"/>
<feColorMatrix type="matrix" values="0 0 0 0 0 0 0 0 0 0 0 0 0 0 0 0 0 0 0.25 0"/>
<feBlend mode="normal" in2="BackgroundImageFix" result="effect1_dropShadow_41_26"/>
<feBlend mode="normal" in="SourceGraphic" in2="effect1_dropShadow_41_26" result="shape"/>
</filter>
<filter id="filter3_d_41_26" x="-94.6077" y="-73.1874" width="496.444" height="425.834" filterUnits="userSpaceOnUse" color-interpolation-filters="sRGB">
<feFlood flood-opacity="0" result="BackgroundImageFix"/>
<feColorMatrix in="SourceAlpha" type="matrix" values="0 0 0 0 0 0 0 0 0 0 0 0 0 0 0 0 0 0 127 0" result="hardAlpha"/>
<feOffset dy="4"/>
<feGaussianBlur stdDeviation="2"/>
<feComposite in2="hardAlpha" operator="out"/>
<feColorMatrix type="matrix" values="0 0 0 0 0 0 0 0 0 0 0 0 0 0 0 0 0 0 0.25 0"/>
<feBlend mode="normal" in2="BackgroundImageFix" result="effect1_dropShadow_41_26"/>
<feBlend mode="normal" in="SourceGraphic" in2="effect1_dropShadow_41_26" result="shape"/>
</filter>
<filter id="filter4_d_41_26" x="16.566" y="182" width="365.115" height="242.723" filterUnits="userSpaceOnUse" color-interpolation-filters="sRGB">
<feFlood flood-opacity="0" result="BackgroundImageFix"/>
<feColorMatrix in="SourceAlpha" type="matrix" values="0 0 0 0 0 0 0 0 0 0 0 0 0 0 0 0 0 0 127 0" result="hardAlpha"/>
<feOffset dy="4"/>
<feGaussianBlur stdDeviation="4"/>
<feComposite in2="hardAlpha" operator="out"/>
<feColorMatrix type="matrix" values="0 0 0 0 0 0 0 0 0 0 0 0 0 0 0 0 0 0 0.5 0"/>
<feBlend mode="normal" in2="BackgroundImageFix" result="effect1_dropShadow_41_26"/>
<feBlend mode="normal" in="SourceGraphic" in2="effect1_dropShadow_41_26" result="shape"/>
</filter>
<linearGradient id="paint0_linear_41_26" x1="-19.788" y1="645.523" x2="606.212" y2="645.523" gradientUnits="userSpaceOnUse">
<stop stop-color="#375E5E" stop-opacity="0.5" style="stop-color:#375E5E;stop-color:color(display-p3 0.2146 0.3685 0.3685);stop-opacity:0.5;"/>
<stop offset="1" stop-color="#375E37" style="stop-color:#375E37;stop-color:color(display-p3 0.2172 0.3685 0.2146);stop-opacity:1;"/>
</linearGradient>
<clipPath id="clip0_41_26">
<rect x="14" y="21" width="371" height="557" rx="8" fill="white" style="fill:white;fill-opacity:1;"/>
</clipPath>
</defs>
</svg>
